<?xml version="1.0" encoding="utf-8"?>
<!-- Generator: Adobe Illustrator 24.0.0, SVG Export Plug-In . SVG Version: 6.00 Build 0)  -->
<svg version="1.1" id="Layer_1" xmlns="http://www.w3.org/2000/svg" xmlns:xlink="http://www.w3.org/1999/xlink" x="0px" y="0px"
	 viewBox="0 0 1423.7 472.6" style="enable-background:new 0 0 1423.7 472.6;" xml:space="preserve">
<style type="text/css">
	.st0{display:none;opacity:0.8;fill:#F7F7F7;}
	.st1{display:none;opacity:0.8;fill:#46999B;}
	.st2{font-family:'Cubano-Regular';}
	.st3{font-size:300px;}
	.st4{display:none;fill:#133030;}
	.st5{display:none;fill:#143030;}
	.st6{display:none;}
	.st7{display:inline;}
	.st8{fill:#31787E;}
	.st9{fill:#08A6AF;}
	.st10{display:inline;fill:#F7F7F7;}
	.st11{fill:#F7F7F7;}
	.st12{display:none;fill:#F7F7F7;}
	.st13{fill:#C6BCA3;}
	.st14{fill:#2F777D;}
	.st15{fill:#01A6AF;}
	.st16{fill:#D3ECEE;}
	.st17{fill:#133030;}
	.st18{fill:#B2A893;}
</style>
<circle class="st0" cx="746.6" cy="311.5" r="264.4"/>
<text transform="matrix(1 0 0 1 596.0997 338.9713)" class="st1 st2 st3">7</text>
<path id="Kemp_ridley" class="st4" d="M768.9,404.5c0,0-0.6-33,16.6-48.9s17.2-15.9,17.2-15.9s6.9-9-9-5.5
	c-15.9,3.4-49.6,8.3-17.2-11.7c32.4-20,53.1-8.3,57.9,0s4.8,25.5,14.5,17.2s23.4-28.3,36.5-22.7c13.1,5.5,6.9,20-6.9,28.3
	s-22.1,15.9-9,22.1c13.1,6.2,28.3,15.9,26.9,38.6c-1.4,22.7-12.4,53.9-16.5,27.6c-4.1-26.3-5.5-48.3-12.4-41.4
	c-6.9,6.9-1.4,21.4-20,33.1c-18.6,11.7-42.1,14.5-42.1,14.5s5.5,20,3.4,29.6c-2.1,9.7-17.2,7.6-20-10.3s-2.8-17.9-2.8-17.9
	s-12.4,2.8-13.8-3.4c-1.4-6.2-2.1-11-2.1-11s-22.1,0-29-16.5C727,384.6,768.9,404.5,768.9,404.5z"/>
<path id="Olive_ridley" class="st4" d="M782.7,408.8c0,0-1.2-29,18.1-45.9s25.3-16.9,22.3-16.9s6-8.4-14.5-4.2
	c-20.5,4.2-32.6,10.3-31.4-1.2c1.2-11.5,22.3-30.2,56.7-29c34.4,1.2,29.6,41.6,35,41c5.4-0.6,20.5-21.7,30.8-33.2
	s44.1,7.2,18.7,24.1c-25.4,16.9-38,26.6-27.2,32s36,13.9,36.4,36.8c0.4,22.9-14.1,73.6-20.7,38c-6.6-35.6-8.4-43.5-19.9-26.6
	s-35.6,29-47.1,30.2s-14.5,2.9-14.5,2.9s3.6,25.4,1.8,33.9c-1.8,8.4-12.7,18.7-20.5,0s-6-30.8-6-30.8s-15.7-0.2-16.9-3.1
	c-1.2-2.9-2.4-13.2-2.4-13.2s-29.7-3.1-34.4-24.4C742.3,398.3,782.7,408.8,782.7,408.8z"/>
<path id="Loggerhead_1_" class="st4" d="M741,389.2c0,0,5.2-44.4,28.4-62.2c23.2-17.8,32.6-30.6,13.7-26.3c-18.9,4.3-64.4,18-38.7-6
	c25.7-24,31.8-28.4,63.6-22.3c31.8,6,24.1,35.2,35.2,37.8c11.2,2.6,19.8-6,31.8-19.8c12-13.8,25.8-15.5,37.8-10.3
	c12,5.2,3.4,25.8-8.6,32.6c-12,6.9-31.8,18-24.9,26.6c6.9,8.6,46.4,23.2,43.8,49.8c-2.6,26.6-17.2,89.4-22.3,61
	s-10.3-75.6-21.5-59.3s-20.5,41.2-49.3,49c-28.9,7.7-37.4,1.9-34.9,13.8s13.7,47.1-8.6,43c-22.3-4.1-19.8-52.6-19.8-52.6
	s-15.5,5.2-21.5,1.7s0-22.3,0-22.3s-25.8-0.1-36.1-11.7c-10.3-11.5-24.1-23.6,0-24.4C733.2,386.5,741,389.2,741,389.2z"/>
<path id="Hawksbill_1_" class="st4" d="M730.1,412.7c5.5-7.4,11.1-56.3,41.5-78.5c30.4-22.2,39.7-28.6,26.8-31.4
	c-12.9-2.8-72,12.9-62.8-7.4c9.2-20.3,68.3-35.1,95.1-25.8c26.8,9.2,15.7,48.7,24.9,46c9.2-2.7,33.2-26.7,45.2-43.3
	s51.7-4.6,36.9,19.4c-14.8,24-54.5,37.5-48.9,46.9c5.6,9.4,44.3,20.5,45.2,40.8c0.9,20.3-19.4,83.1-29.5,85.8
	c-10.1,2.7-8.3-33.3-5.5-45.3c2.8-11.9,3.7-51.6-10.2-33.2s-10.2,41.5-48.9,59.1c-38.8,17.5-53.5,19.5-53.5,19.5
	s18.5,45.1,10.2,52.5c-8.3,7.4-32.3-2.8-34.2-24c-1.9-21.2-5.5-25.8-5.5-25.8s-26.8,4.6-26.8-1.8s0-27.7,0-27.7s-29.5,10.2-39.7-0.9
	s-24.9-28.6,7.4-26.8S730.1,412.7,730.1,412.7z"/>
<path id="Flatback" class="st4" d="M686.5,392.3c0,0-4.9-41.5,26.6-74s49.2-40.1,41.4-48.1s-61.7-3.1-68.3-6.1
	c-6.6-3,4-46.3,70.1-49.2s59.2,47.6,62.2,55.3c3,7.7,18.7,19.5,29.5,6.7c10.8-12.8,22.7-40.4,47.3-40.4s39.4,25.6,10.8,45.3
	c-28.6,19.7-51.2,37.4-34.5,45.3s57.1,29.5,62,59.1c4.9,29.6-11.8,85.7-22.7,71.9c-10.8-13.8-16.7-56.9-28.6-65.9
	c-11.8-9-12.8,16.6-38.4,36.3c-25.6,19.7-55.2,26.6-68.9,27.6c-13.8,1-13.8,21.7-17.7,42.4c-3.9,20.7-39.4,44.3-38.4,0
	s-6.9-47.3-19.7-34.5c-12.8,12.8-18.7,3-14.8-12.8c3.9-15.8,3-21.7-19.7-19.7c-22.7,2-56.1-33.2-21.7-39.3
	C677.4,386.1,682.5,396.4,686.5,392.3z"/>
<path id="Green_1_" class="st4" d="M675.1,363.8c0,0,4.3-70.5,38.7-94.2c34.4-23.7,58-30.1,51.5-45.1c-6.4-15-76.2-3.2-78.4-10.7
	c-2.1-7.5-27.9-29,48.3-27.9c76.2,1.1,90.2,19.2,92.3,43.4c2.1,24.2,30.1,21,46.2-8c16.1-29,48.3-27.9,58-12.9
	c9.7,15,7.5,38.7-18.3,52.6c-25.8,14-38.7,29-12.9,44s59.1,20.8,55.8,58.7c-3.2,37.9-47.2,116.3-54.8,101.3s18.3-103.7,1.1-101.3
	c-17.2,2.4-8.6,54-50.5,75.5c-41.9,21.5-96.6,10.2-93.4,27.7c3.2,17.4,21.5,72.2-7.5,66.8c-29-5.4-31.1-22.5-31.1-52.6
	s-8.6-21.5-24.7-23.6s-23.6-17.2-20.4-34.4c3.2-17.2-15,11.8-44-1.1s-50.5-27.9-20.4-40.8C640.7,368.3,674.5,370.3,675.1,363.8z"/>
<path id="Leatherback" class="st4" d="M621,397.8c4.5-3.3,58-104.8,94.8-132.7c36.8-27.9,60.2-46.9,19-41.9
	c-41.3,5.1-104.8,45.2-104.8,16.2s86.1-73.6,126.7-74.7c40.6-1.1,62.9,46.8,65.1,68s41.3-12.3,50.2-30.1s36.8-39,59.1-31.2
	c22.3,7.8,20.1,30-7.8,51.8c-27.9,21.8-65.8,50.8-46.8,63.1c19,12.3,82.5,45.7,74.7,85.9c-7.8,40.1-43.5,73.6-54.6,97
	c-11.2,23.4-43.5,63.6-19-31.2s16.7-101.5,0-84.8c-16.7,16.7-33.5,65.8-82.5,90.3s-81.4,29-83.6,35.7s15.6,53.5,0,61.3
	c-15.6,7.8-39-1.1-42.4-29c-3.4-27.9-4.5-33.5-21.2-30.1c-16.7,3.3-21.2-6.7-20.1-20.1c1.1-13.4-6.7-6.7-25.6-10
	c-19-3.3-68-42.4-31.2-46.8C607.6,400.1,621,397.8,621,397.8z"/>
<path id="Olive_ridley_1_" class="st5" d="M674.9,423.9c0,0-44.9-40.4-42-93.7c2.9-53.4,11.7-62.4,7.3-57.9
	c-4.4,4.5-3.8-21.3-27.4,15.4c-23.6,36.7-32.1,63.6-47.4,45.1c-15.4-18.5-12.5-77.2,39.3-126.7s105.1,16.5,112.1,7.5
	s-2.5-62.2-4.7-94.2c-2.2-32,74.9-55.1,63.2,7.2c-11.7,62.4-15.7,95.3,8.2,87s73-33.4,107.8-0.7c34.8,32.7,89.3,128.2,26.6,86.2
	s-77.1-50.6-68.6-9c8.5,41.7-8.6,95.2-23.5,114.1c-14.9,18.9-16.7,25.9-16.7,25.9s43.2,31.6,53.1,46.6c9.9,15,9.4,46.1-29.9,30.6
	c-39.3-15.5-54.7-35.8-54.7-35.8s-23.1,23.1-29.2,20.7c-6.1-2.4-23.2-15.6-23.2-15.6s-47.9,39.7-86.4,15.9
	C600.4,468.6,674.9,423.9,674.9,423.9z"/>
<g class="st6">
	<g class="st7">
		<path class="st8" d="M671.7,260.9c-15.5,34.7-14.7,73.7-1.5,109c6.4,17.1,14.9,33.3,25,48.5c10.1,15.1,21.7,29.2,37.5,38.5
			c5.8,3.4,14.3,2.6,19-2.5c11.6-12.5,23.2-24.9,34.7-37.5c11.1-12.1,21.9-24.8,29.3-39.6c7.3-14.6,11.6-29.9,13.5-46.1
			c1.8-15.3,1.2-32.4-3.8-47.1c-5.2-15.6-16.1-28-30.4-35.9c-15.1-8.3-31.9-11.1-48.7-13.1c-17.4-2-34.7-2.3-51,5
			c-14.7,6.6-26,20.1-28.2,36.3c-2.3,16.8,2.9,34.8,7.5,50.8c4.5,15.6,10.2,30.7,16.4,45.7c3.4,8.2,6.9,16.3,10.5,24.4
			c3.7,8.3,6.5,17.4,14.3,22.7c14.2,9.8,33.9,1.4,44.2-10.1c9.9-11,15.6-24.8,22-38c7.3-15.1,16.3-30.5,20.2-47
			c3.5-15,2.7-32.6-6.7-45.5c-10.9-15-27-19-44.5-20.8c-8.3-0.8-16.6-1.5-24.9-1.9c-8.2-0.4-16.8-1.2-25-0.6
			c-12.5,1.1-20.2,10.2-20,22.6c0.1,7.4,1.2,14.9,3,22.1c3.3,13.6,9.4,26.6,15.7,39.1c3.2,6.3,6.4,12.5,9.6,18.7
			c1.4,2.8,2.8,5.6,4.1,8.4c0.7,1.4,1.3,2.8,1.9,4.2c1.3,2.9,0.5,1.2,0.2,0.5c0.4,1,0.8,1.9,1.1,2.9c2.4,6.2,4.3,12.6,5.7,19.1
			c3.6,17.1,32.3,13.6,30.8-4.2c-3-37.2-6-74.5-9-111.7c-9.8,2.6-19.5,5.3-29.3,7.9c15.2,22.3,26.2,44.9,34,69.8
			c2.4,7.8,11.1,13.6,19.3,11c8.1-2.6,13.3-10.8,11-19.3c-0.6-2.2-1.1-4.5-1.6-6.7c-0.6-2.9-0.1,0.5-0.4-2.7
			c-0.3-3.7-0.4-7.5-0.1-11.2c0-0.9,0.1-1.7,0.2-2.6c-0.2,1.3-0.2,1,0.1-1c0.3-1.7,0.6-3.4,1.1-5.1c1-3.9,2.3-7.7,3.9-11.4
			c-9.6,1.3-19.1,2.5-28.7,3.8c1.2,1.7,2.4,3.5,3.4,5.4c0.5,0.9,1,1.9,1.4,2.8c-0.7-1.5-0.1-0.2,0.2,0.6c1.4,4.3,2.5,8.6,3.2,13.1
			c0.4,2.7-0.2-2.1,0.1,0.6c0.1,1.1,0.2,2.1,0.3,3.2c0.2,2.2,0.3,4.3,0.4,6.5c0.2,4.6,0.1,9.2,0.1,13.8c-0.1,8.2,7.3,16.1,15.7,15.7
			c8.6-0.4,15.5-6.9,15.7-15.7c0.1-6.2,0.2-12.3,0.4-18.5c-8.9,3.7-17.9,7.4-26.8,11.1c0.8,0.6,1.5,1.2,2.2,1.9
			c2,1.8-0.1-0.5,0.6,0.8c1.1,2.1-0.5-2.1,0.2,0.2c0.2,0.8,0.5,3.7,0.3,0.8c10.5,0,20.9,0,31.4,0c-1.5-19.3-5.1-38.3-11.5-56.6
			c-3.3-9.5-6.8-18.9-13.4-26.6c-5.8-6.7-14.2-11.2-22.9-13c-15.4-3.2-37.7-4.6-49.8,7.4c-8.1,8-9.8,20.3-5.5,30.6
			c3.9,9.2,11.2,14.9,17.5,22.3c1.2,1.4,0,0-0.2-0.3c0.7,1,1.4,2,2,3.1c1,1.7,1.9,3.4,2.7,5.2c1,2.3-0.7-2.1,0.1,0.3
			c0.4,1.2,0.8,2.3,1.1,3.5c0.5,1.9,0.9,3.8,1.3,5.7c-0.5-3,0.1,2.2,0.1,3.1c0.1,2,0,3.9-0.2,5.9c-0.2,3.2-0.1,0.8,0,0.2
			c-0.2,1.2-0.5,2.4-0.8,3.6c-0.2,0.7-0.4,1.4-0.6,2.1c-0.1,0.2-1.7,4.6-0.5,1.7c-3.2,7.5-2.5,17.2,5.6,21.5
			c6.7,3.6,18,2.4,21.5-5.6c6.1-14.3,7.9-29.1,4.3-44.4c-1.6-6.9-4.6-13.9-8.4-19.8c-4.4-6.7-10.2-11.6-15.3-17.5
			c-1.2-1.3-0.5-0.5-0.2-0.2c-0.4-0.6-0.7-1.5-1.2-2c-1-1.2,0.2,1.9,0.1,0.4c-0.1-1.4-0.2,1.4-0.9,2.4c-0.5,0.8-1.1,1.1-1.8,1.7
			c1.3-1.1,0.9-0.4-0.5,0c0.8-0.2,4.7-1.2,2.9-0.9c-1.8,0.3,1.8-0.1,2.5-0.1c3.1-0.1,6.2-0.1,9.3,0.1c1.5,0.1,3,0.2,4.6,0.3
			c3,0.2-1-0.4,1.8,0.3c1.7,0.4,3.4,0.8,5,1.4c1.7,0.6-0.2,0-0.4-0.1c0.8,0.5,1.7,0.9,2.5,1.5c-2-1.3,0.9,1,1.4,1.6
			c-1.3-1.5,0.9,1.5,1.2,2.1c0.8,1.4,1.5,2.9,2.2,4.3c-0.8-1.8,1,2.7,1.2,3.4c3.1,8.5,5.7,17.3,7.7,26.2c2.1,9.3,3.2,16.7,3.9,25.6
			c0.7,8.2,6.8,16.1,15.7,15.7c8-0.4,16.3-6.9,15.7-15.7c-0.7-9.9-4.4-19.6-12.5-25.9c-5.1-4-10.8-5.9-17.2-3.2
			c-5.8,2.4-9.5,8-9.7,14.4c-0.1,6.2-0.2,12.3-0.4,18.5c10.5,0,20.9,0,31.4,0c0.2-21.1-0.7-43.9-13.2-61.8c-3.7-5.3-9-8.4-15.6-7.5
			c-6.7,0.9-10.5,5.3-13.1,11.2c-7.6,18-8.3,38.6-3.2,57.3c10.1-2.8,20.2-5.6,30.3-8.3c-8.5-27.4-21-53.6-37.1-77.3
			c-3.8-5.6-10.8-9.4-17.7-7.2c-6.2,2-12.1,8.1-11.5,15.1c3,37.2,6,74.5,9,111.7c10.3-1.4,20.6-2.8,30.8-4.2
			c-4.3-20.9-14.8-39.8-24.4-58.6c-2.2-4.4-4.4-8.8-6.5-13.2c-0.5-1.2-1.1-2.3-1.6-3.5c-0.7-1.5,0.5,1.4-0.5-1.2
			c-0.9-2.4-1.8-4.7-2.7-7.1c-1.6-4.7-3-9.6-3.9-14.5c-0.2-1-0.4-2-0.5-3c0.4,2.9,0-0.5,0-1.1c-0.1-1.2,0-2.6-0.2-3.8
			c-0.5-3,0.2,0.1-0.7,1.3c-1.9,1.9-3.8,3.8-5.6,5.6c-3.5,2.3-6.2,1-2.2,1c1.6,0,3.2,0,4.8,0.1c2.6,0,5.1,0.1,7.7,0.2
			c6.4,0.2,12.8,0.5,19.2,1c5.7,0.4,11.3,1,16.9,1.5c0.4,0,3.1,0.4,0.7,0c1.1,0.2,2.2,0.3,3.2,0.5c2.6,0.5,5.3,1.1,7.8,2.1
			c-2.5-0.9,4.8,3.2,2.6,1.4c0.9,0.7,3.7,4.5,2.3,2.2c0.7,1,1.2,2.1,1.8,3.1c1.2,2.2-0.7-2.1,0.1,0.3c0.4,1.2,0.8,2.3,1.1,3.5
			c0.2,0.7,0.7,4.9,0.4,1.7c0.8,8.6-1.8,17.2-5,24.4c-5,11.1-10.5,22-15.8,33c-4.1,8.4-7.8,17.2-13.5,24.8c1.8-2.4-0.1,0-0.6,0.6
			c-0.8,0.8-1.6,1.6-2.3,2.4c-0.4,0.5-2.3,1.9,0.1,0.1c-0.7,0.5-1.4,1-2.2,1.4c-0.2,0.1-3.8,1.5-1.6,0.9c2.3-0.7-1.8,0.4-1.8,0.4
			c1.6-0.4,1.9,0.6,0.1-0.1c0.8,0.3,6.5,1.6,5.2,3.4c0.3-0.4-2.5-5.4-2.9-6.2c-1.3-2.8-2.5-5.7-3.8-8.5c-2.2-5-4.7-10.7-6.7-15.3
			c-8.5-20.3-16.6-42.4-21.5-64.4c-0.6-2.7-1.2-5.5-1.7-8.2c-0.2-1.2-0.4-2.3-0.6-3.5c0.3,1.9-0.1-0.9-0.1-1.1
			c-0.2-2.8-0.5-5.9-0.1-8.8c-0.1,0.8-0.4,2,0.3-1c1.1-4.4-1.3,1.5,0.6-1.9c0.5-0.9,1-1.7,1.5-2.5c2.2-3.7-1.1,1,0.7-0.8
			c0.7-0.7,1.3-1.4,2.1-2.1c0.5-0.5,3.1-2.2,0.8-0.8c1.6-1.1,3.4-2,5.1-3c4-2.2-1.5,0.4,1-0.4c1.5-0.5,2.9-1,4.4-1.3
			c4.5-1.1,7.9-1.3,13.2-1.3c6.2,0.1,12.4,0.7,18.5,1.4c4.4,0.5,8.5,1.1,14,2.3c2.4,0.5,4.8,1.1,7.1,1.8c1.5,0.4,2.9,0.9,4.4,1.4
			c0.9,0.3,1.7,0.6,2.6,0.9c-0.9-0.4-0.9-0.4,0.1,0c2.1,0.9,4.2,2,6.1,3.2c0.9,0.5,1.8,1.1,2.6,1.6c-0.3-0.2,3.7,2.7,2.1,1.5
			c2.5,2,5.8,5.5,7.2,7.9c4.8,7.8,5.7,16.9,6.1,25.9c0.8,21.9-4.6,42.1-17.1,60.8c-6.5,9.7-15.2,18.8-23.7,28
			c-9.4,10.2-18.9,20.3-28.3,30.5c6.3-0.8,12.7-1.6,19-2.5c-3.9-2.3-4.9-3-7.5-5.2c-2.9-2.5-5.6-5.2-8.2-8.1s-3.8-4.5-5.3-6.5
			c-2.1-2.9-4.2-5.9-6.2-8.9c-4.3-6.6-8.4-13.3-12.1-20.3c-3.7-6.9-6.6-13.2-8.8-19.3c-2.6-7.1-4.8-14.3-6.5-21.7
			c-0.5-2.3-0.9-4.6-1.3-6.9c-0.1-0.4-0.7-5-0.4-2.8c-0.5-4.1-0.8-8.1-0.9-12.2c-0.3-14.4,1.9-29,7.4-41.3
			c3.3-7.5,2.4-17.2-5.6-21.5C686.4,251.6,675.3,252.9,671.7,260.9L671.7,260.9z"/>
	</g>
</g>
<g class="st6">
	<g class="st7">
		<path class="st9" d="M749.5,407.8c-12.5-25.7-32.4-46.9-43.6-73.3c-7.6,4.5-15.3,8.9-22.9,13.4c7.4,16.8,16.3,32.8,25.8,48.4
			c4.7,7.7,9,17,15.1,23.6c3.6,3.9,8.3,6,13.6,5.7c3.1-0.1,6.1-1.1,8.8-2.8c0.4-0.3,4.6-3.1,2.2-2.1c7.7-3.2,12.8-11.4,7.9-19.5
			c-17.2-28.4-34.9-57.2-59.1-80.3c-4.8-4.5-12.2-5.2-17.4-1c-4.6,3.7-7.5,11.8-3.4,17.1c19.9,25.7,41.5,49.8,65.4,71.9
			c5.3,4.9,13.6,5.2,18.8,0c4.9-4.9,5.3-13.9,0-18.8c-22.1-20.5-42.8-42.6-61.3-66.5c-7,5.4-13.9,10.7-20.9,16.1
			c22.6,21.6,38.8,48.3,54.9,74.9c2.6-6.5,5.3-13,7.9-19.5c-2.6,1.1-6.6,2.4-8.6,4.8c10.1,5.3,13.5,5.7,10.2,1.2
			c-0.3-0.5-0.7-1.1-1-1.6c-1-1.6-2-3.2-3-4.7c-4.1-6.6-8.2-13.2-12.1-19.9c-7.7-13.1-14.9-26.5-21.1-40.4
			c-2.9-6.6-12.5-8.1-18.2-4.8c-6.8,4-7.6,11.5-4.8,18.2c11.2,26.4,31.1,47.6,43.6,73.3c3.1,6.5,12.3,8.2,18.2,4.8
			C751.3,422.2,752.6,414.3,749.5,407.8L749.5,407.8z"/>
	</g>
</g>
<g class="st6">
	<g class="st7">
		<path class="st9" d="M764.1,362.4c13.7-7.5,19.9-22.3,24.6-36.3c4.9-14.9,7.9-30.3,10.8-45.7c-8.1,1.1-16.2,2.1-24.3,3.2
			c2.5,5.6,3.2,12,3.6,18c0.5,7,1.4,14.6,0.4,21.7c-1.6,10.7-9.8,14.8-20,17.6c-16.5,4.6-9.5,30.2,7.1,25.6
			c18.3-5.1,34.8-16.7,38.6-36.3c1.9-9.7,1.3-19.7,0.5-29.5c-0.8-10.8-2.7-20.7-7.2-30.6c-4.6-10.2-22.2-7.7-24.3,3.2
			c-2.6,13.5-5.1,27.1-9.1,40.3c-1.7,5.7-3.7,11.8-5.9,16.3c-2.4,4.8-4.1,7.4-8.1,9.5C735.7,347.7,749.1,370.7,764.1,362.4
			L764.1,362.4z"/>
	</g>
</g>
<g class="st6">
	<g class="st7">
		<path class="st9" d="M738.4,300.7c-6.5-10.3-12.1-21.1-16.5-32.4c-3.1,5.4-6.2,10.9-9.3,16.3c2.9-0.5,5.7-1.1,8.6-1.6
			c1.3-0.2,2.5-0.5,3.8-0.7c0.6-0.1,4-0.3,2.1-0.4c-3.1-1.3-6.3-2.6-9.4-3.9c0.1,0.2,0.2,0.3,0.4,0.5c-1.1-2-2.3-3.9-3.4-5.9
			c-0.3-1.6-0.3-1.2,0,1.1c0.1,1.3,0.2,2.6,0.3,4c0.2,2.6,0.4,5.3,0.7,7.9c0.3,2.6,0.4,5.3,0.7,7.9c0.1,1.3,0.2,2.6,0.3,4
			c0,2.4,0.3,1.7,0.9-1.9c1.6-1.6,3.2-3.2,4.8-4.8c-0.3,0.2-0.6,0.4-0.9,0.7c6.1,6.1,12.1,12.1,18.2,18.2c3.1-7.1,5.9-14.3,8-21.8
			c2-7.4,4.3-15.7,1.9-23.2c-6.2-19.8-29.9-13.5-44-7.9c-5,2-10.5,6.7-9.8,12.8c1.2,10,6.1,16.7,15.6,20.3
			c6.7,2.5,14.6-2.8,16.3-9.3c2-7.5-2.5-13.8-9.3-16.3c2.9,1.1,3.5,2.3,3.9,5.3c-3.3,4.3-6.5,8.5-9.8,12.8c4.7-1.9,9.5-3.2,14.5-4.5
			c2.1-0.4,2.5-0.5,1.1-0.3c1.7,0,1.9,0,0.7-0.2c-3-1.3-4.6-3.2-4.8-5.8c-0.1,1.5-0.1,1.8,0,1c-1.9,6.5-4,16.3-7.3,23.8
			c-2.4,5.5-2.4,11.6,2.1,16.1c3.9,3.9,11.3,5.5,16.1,2.1c7.1-5,8.9-11.5,8.2-19.9c-0.6-6.9-1.2-13.8-1.7-20.7
			c-0.3-3.8-0.3-7.9-2.3-11.3c-2.5-4.2-7-7-11.8-7.1c-7-0.1-14.7,2.3-21.5,3.6c-6.6,1.2-11.7,10.1-9.3,16.3
			c5.2,13.5,11.4,26.5,19.1,38.8c3.8,6.1,11.8,8.5,18.2,4.8C739.7,315.4,742.3,306.8,738.4,300.7L738.4,300.7z"/>
	</g>
</g>
<path class="st4" d="M942.3,537H530.7c-2,0-3.6-1.6-3.6-3.6V121.7c0-19.8,16-35.8,35.8-35.8h411.7c2,0,3.6,1.6,3.6,3.6v411.7
	C978.1,521,962.1,537,942.3,537z"/>
<g id="recycle" class="st6">
	<path class="st10" d="M664.2,249l58.7,32.6l36.4-64.8l22.6,41L756,273.2l70-4.2l31.1-57.1l-23.8,13.8c0,0-14.6-31.1-19.6-34.9
		c-5-3.8-9.2-5.4-43.3-5.4s-57.9-3.1-64.8,0c-6.9,3.1-13,12.7-20.3,26.8C678,226.4,664.2,249,664.2,249z"/>
	<path class="st10" d="M803.4,299.6l57.9-33.4l29.5,51.3c0,0,6.1,15.1,0,26.2c-6.1,11.1-47.2,74.4-47.2,74.4s-6.1,6.5-18.4,6.5
		c-12.3,0-30.7,0-30.7,0v24.9l-33.9-56l35.1-62.1l-1.5,30.7l45.6,0.4L803.4,299.6z"/>
	<g class="st7">
		<path class="st11" d="M743.2,427v-66.3h-71.7l23.8-40.7l24,16.1l-35.9-59.4h-64l20.7,13.4l-19.2,34.5c0,0-3.5,8.1,3.8,19.9
			c7.3,11.9,35.9,64.9,35.9,64.9s7.5,18,27.8,17.6C708.7,426.6,743.2,427,743.2,427z"/>
	</g>
</g>
<path id="heart" class="st12" d="M885.5,223.4c-4.8-8.4-11.8-15.4-20.3-20.1c-56.5-31.8-114,8.2-114,61.6c0,0.3,0,0.3,0,0
	c0-54.7-60.2-95.3-117.9-59.3c-5.7,3.6-10.6,8.4-14.1,14c-18.7,29.7-17.1,59.9-3.7,82.4c1.7,2.9,3.9,5.7,6.2,8.2l129.6,136.6
	l131-138.1c1-1,1.9-2.1,2.7-3.3C899.5,283.6,902.7,253.4,885.5,223.4z"/>
<g id="eggs" class="st6">
	<path class="st10" d="M650.2,239.5c-34.9,5-56.5,55.7-49.7,102.9c6.8,47.2,39.4,73,74.3,67.9c34.9-5,58.9-39,52.1-86.1
		C720.1,276.9,685.1,234.4,650.2,239.5z"/>
	<path class="st10" d="M864.5,251.5c-32.3-6.8-67.4,30.8-76.6,74.4c-9.1,43.6,11.3,76.7,43.5,83.5c32.3,6.8,64.2-15.4,73.3-59
		C913.9,306.8,896.8,258.2,864.5,251.5z"/>
	<path class="st10" d="M759.2,205.6c-42,0.1-76,56.4-75.8,113.2c0.2,56.8,34.4,92.7,76.5,92.6c42-0.1,76-36.2,75.8-93
		C835.5,261.5,801.3,205.5,759.2,205.6z"/>
</g>
<rect x="-9.4" y="34.4" class="st13" width="1440" height="626.4"/>
<path class="st14" d="M-9.4,200.6c0,0,90.1-95.3,287.4-103.6s495.3,118.5,755.7,118.5s396.9-58,396.9-58V-23.9l-1440-5.2v63.6V200.6
	z"/>
<path class="st15" d="M-9.4,91.4c0,0,233.1-60.2,395.2-48.5s287.4,78.5,551.4,76.9c264-1.7,493.4-56.8,493.4-56.8V31.2
	c0,0-237.7,55.1-391.5,60.2S716.7,83,634.8,63S469.3,11.2,278,19.5S-9.4,59.6-9.4,59.6V91.4z"/>
<path class="st15" d="M-9.4,181.2c0,0,97.7-100.6,322.1-96.7s468.4,104.5,654.3,110.3s404.8-40.6,404.8-40.6l58.7-25.2v66.3
	c0,0-349.3,59.5-500.3,49.8c-151.1-9.7-445.4-96.7-497.7-106.4c-52.3-9.7-161.5-19.3-267.6,7.7S-9.4,246.1-9.4,246.1V181.2z"/>
<path class="st16" d="M-9.4,264.2c6.7-1.5,140.4-100.4,206.3-110.9c65.8-10.5,184.3-12,233.8,0c49.5,12,301.3,103.4,379.3,110.9
	c78,7.5,183.9,7.5,301.8,0c117.9-7.5,318.9-42,318.9-42v-36c0,0-312.6,51-517,42s-433.5-96.8-535.4-108.4s-255,27.4-308.1,57.4
	s-79.4,51-79.4,51V264.2z"/>
<path id="Green_2_" class="st17" d="M1111,384.9c0,0-48.9-15.6-59.4-44s-10.8-46.2-22.6-44.3c-11.7,1.9-15.9,53.1-21.5,53.3
	c-5.7,0.2-25.4,14.5-11-39s29.6-60.1,47.1-57.3c17.4,2.8,20.1-17.4,2.6-33.9c-17.5-16.5-11-39,1.3-43.1c12.3-4.1,28.6,1.6,33.8,22.2
	c5.2,20.6,13.5,32.4,28.7,16.9c15.2-15.5,25.2-37.9,51.3-28.9c26.1,9,73.5,54,61.6,56.6c-11.9,2.6-69.8-31.3-71.1-18.8
	c-1.3,12.5,36.5,15.7,44.2,49c7.7,33.3-10,69.9,2.8,70.7c12.9,0.8,54.7-2.3,45.7,17.2c-8.9,19.5-21.4,17.9-42.6,12.6
	c-21.2-5.4-16.7,2.2-21,13.2s-16.3,13.6-27.8,8.2s5.6,12.7-8.6,30.8c-14.2,18.1-28.7,30.6-32.4,7.1
	C1108.1,410,1115.5,386.5,1111,384.9z"/>
<path id="Olive_ridley_2_" class="st17" d="M273.4,312.8c0,0-7.5-23.9,4.8-42.2c12.3-18.4,17.3-19.7,14.8-19.1s3.1-8.4-13-0.3
	c-16.1,8.1-24.8,15.9-26.4,6c-1.6-9.8,11.8-30.1,40.7-36.8c28.9-6.7,33.9,28.1,38.3,26.3c4.4-1.7,12.2-22.7,18.2-34.5
	c6-11.8,38.3-3.8,21,15.9s-25.7,30.6-15.5,32.7c10.3,2.1,33.1,3.5,38.5,22.5c5.5,19,4.8,64.5-8.7,36.3
	c-13.5-28.2-16.8-34.3-22.5-17.7c-5.8,16.6-23.2,32.1-32.4,35.7c-9.3,3.6-11.4,5.7-11.4,5.7s8.7,20.4,9.1,27.8
	c0.4,7.4-6.4,18.4-17.1,4.6c-10.7-13.8-11.9-24.3-11.9-24.3s-13.1,3.4-14.8,1.2c-1.7-2.2-5-10.4-5-10.4s-25.4,4-34.1-12.6
	C237.4,313,273.4,312.8,273.4,312.8z"/>
<path class="st18" d="M34.4,328.5c0,0,38.1,3.5,41.6,0C79.5,324.9,46.4,308,34.4,328.5z"/>
<path class="st18" d="M70.8,316.4c0,0,22.1,4.8,24.2,0S77.7,288.5,70.8,316.4z"/>
<path class="st18" d="M486.9,242.5c0,0,7-17.6,14.8-14.1c7.8,3.5,6.3,17.7,6.3,17.7L486.9,242.5z"/>
<path class="st18" d="M515.8,237c0,0,28.2-0.2,28.9-3.7C545.4,229.8,510.1,228,515.8,237z"/>
<path class="st18" d="M427.7,392.6h38.8C466.4,392.6,436.1,378.5,427.7,392.6z"/>
<path class="st18" d="M749.8,375c0,0,9.2-16.9,19.7-12.7c10.6,4.2,7,12.7,7,12.7H749.8z"/>
<path class="st18" d="M744.1,361.6c-4.2,0.7-22.6,0-22.6,0s-4.2-10.6,6.3-10.6C738.5,351,744.1,361.6,744.1,361.6z"/>
<path class="st18" d="M756.8,356.5c0,0-16.2-7.3-12.7-8.9C747.7,346.1,769.5,351.3,756.8,356.5z"/>
<path class="st18" d="M928.1,448.3h31C959.1,448.3,943.6,434.2,928.1,448.3z"/>
<path class="st18" d="M1143.8,513.1h32.4C1176.2,513.1,1155.8,497.6,1143.8,513.1z"/>
<path class="st18" d="M1176.2,501.1c-2.6,2.8,28.2,0,28.2,0S1187.5,489.2,1176.2,501.1z"/>
<path class="st18" d="M1331.3,327.1c0,0,5.6-16.2,12.7-9.2c7,7,4.9,6.3,0,9.2C1339,329.9,1331.3,327.1,1331.3,327.1z"/>
<path class="st18" d="M1320.7,338.3h19.2C1339.9,338.3,1325.6,324.9,1320.7,338.3z"/>
<g>
	<g>
		<path class="st14" d="M306.5,254.1c-11.9,8.6-19.7,21.3-22.8,35.7c-3.3,14.9-3.8,33.2,3.4,47.1c1.3,2.5,4.7,3.8,7.3,3
			c13.5-4,28.8-6.8,40.6-15c10.3-7.2,19.6-18.7,21.8-31.3c2.5-14.6-8.1-25.4-18.7-33.4c-10.1-7.6-25.1-13.5-35.3-2.7
			c-4.4,4.6-6.3,11.5-8,17.4c-2.2,7.6-3.6,15.4-4.7,23.2c-0.9,6-2.9,13.3-1.9,19.3c1.2,7,8.6,9.8,14.9,9.1c7-0.7,12.8-5.1,18.5-8.9
			c6.1-4,12.9-7.8,18.1-13.1c9.3-9.5,9.9-23.1-0.5-31.8c-6.1-5.1-13.1-10.1-20.1-13.8c-8-4.2-12.5,2.2-15.1,9.1
			c-5.4,14.1-2.2,29.8-6.9,44.1c-2.3,6.9,8.6,11.7,11.9,5c6.8-13.9,13.6-27.8,20.4-41.7c-4-1.1-8.1-2.2-12.1-3.3
			c0.6,10.8-0.2,21.4-2.6,32c-1.9,8.1,10.2,11.5,12.5,3.5c1.5-5.1,4.2-9.7,8.5-12.9c-3.3-1.9-6.5-3.7-9.8-5.6
			c0.3,6.9-3.1,12.5-6.5,18.2c-4.3,7.2,6.8,13.7,11.2,6.6c1.3-2.2,2.7-4.3,4-6.5c-4-0.5-7.9-1-11.9-1.6c0.4,0.6,0.5,1.2,0.3,1.9
			c-3.2,7.5,7.5,14.2,11.2,6.6c4.4-9.1,8-19.1,8.9-29.3c0.8-9.9-5.8-16.6-14.1-20.8c-8.4-4.4-18.9-1.5-19.5,9.2
			c-0.2,4.5,2.2,8.7,1.7,13.3c-0.4,3.8-2.4,7.8-5.5,10.1c-2.8,2.2-4.2,5.6-2.3,8.9c1.6,2.8,6.1,4.5,8.9,2.3c5.2-4,9.2-9,10.9-15.4
			c0.8-2.8,1.1-5.9,1-8.8c-0.1-1.4-0.7-9-1.8-9.5c0.1-1-0.4-0.8-1.5,0.6c0.8,0.2,1.5,0.5,2.1,1c1.5,0.8,3.1,1.7,4.4,2.8
			c2.5,2.1,2.9,3.9,2.4,7.1c-1,7.6-3.7,15.2-7,22.1c3.7,2.2,7.5,4.4,11.2,6.6c1.7-4,2.4-7.7,1-11.9c-1.7-5.3-8.9-6.4-11.9-1.6
			c-1.3,2.2-2.7,4.3-4,6.5c3.7,2.2,7.5,4.4,11.2,6.6c4.6-7.6,8.8-15.6,8.3-24.8c-0.2-4.4-5.6-8.8-9.8-5.6c-7,5.4-12,12.1-14.4,20.7
			c4.2,1.2,8.4,2.3,12.5,3.5c2.7-11.6,3.8-23.5,3.1-35.4c-0.3-5.9-9.1-9.5-12.1-3.3c-6.8,13.9-13.6,27.8-20.4,41.7
			c4,1.7,7.9,3.3,11.9,5c2.9-8.8,3.1-18,3.7-27.2c0.3-4.5,0.7-8.9,2-13.2c0.5-1.9,1.9-3.9,2.3-5.7c0.1-0.2,0.3-0.5,0.4-0.7
			c-5.7,0.1-7,0.9-3.8,2.4c0.9,1,2.7,1.7,3.8,2.4c4,2.5,8,5.1,11.7,8.1c3.4,2.6,5.7,5.3,3.9,9.6c-1.7,4.1-5.7,6.8-9.2,9.2
			c-4.6,3.1-9.1,6.2-13.8,9.1c-1.9,1.2-3.8,2.5-5.8,3.4c-0.9,0.4-2,0.4-3,0.8c-1.5,0.6-1.2-1.4-0.5,0.7c-0.6-1.7,0.6-5.4,0.8-7.3
			c0.4-3.1,0.8-6.1,1.2-9.1c1.5-9.5,3.1-20.3,7.5-29c4.7-9.2,15.4-1.8,21,2.4c7.5,5.7,15.2,13.2,11.5,23.4
			c-8.1,22.4-31.9,26.6-52,32.5c2.4,1,4.9,2,7.3,3c-5.5-10.5-4.6-25.8-2.1-37.1c2.4-10.8,7.7-21.3,16.9-27.9
			C319.8,260.5,313.3,249.2,306.5,254.1L306.5,254.1z"/>
	</g>
</g>
<g>
	<g>
		<path class="st14" d="M1055.4,287.6c0.1,15.5,2.9,31.9,11.3,45.2c10.2,16.1,26.9,21.7,44,27.9c9.4,3.4,18.9,6.7,28.6,9.5
			c8.8,2.5,18.8,5.8,25-3.2c5.1-7.4,7.6-17.6,9.1-26.4c1.7-9.4,2.3-18.9,2.7-28.4c0.4-9.3,1-18.9-0.9-28.1
			c-1.8-8.6-6.5-16.2-12.5-22.5c-5.8-6-12.6-11.1-19.4-15.9c-8.1-5.8-16.3-7.4-26.1-6.8c-17.4,1.1-35.8,5.6-48.4,18.5
			c-12.5,12.8-16.5,30.3-9.5,46.9c6.8,16,18.8,30.7,33.4,40.4c16,10.6,35.4,13.7,54,16.1c4.1,0.5,8.3,0.4,11.5-2.5
			c3.7-3.3,4-8.2,4.8-12.8c1.6-10.2,2.6-20.5,3.1-30.8c1-18.4,3.1-39-10.2-53.7c-12.3-13.5-31.6-17-49-15.2
			c-9,0.9-17.8,2.9-24.7,9.2c-6.1,5.5-10.7,13.4-14.4,20.7c-4.1,8.2-6.6,17.5-2.6,26.3c3.6,7.7,11.1,12,16.6,18.1
			c5.7,6.4,10,13.9,16.8,19.3c6.6,5.2,14.5,8.5,22.6,10.3c4.2,0.9,8.4,1.5,12.7,2c4.3,0.5,9.2,1.3,13.4,0.2
			c9.3-2.3,10.2-11.5,10-19.6c-0.3-10.6-0.6-21.2-0.9-31.8c-0.2-9.1,0.4-19.3-4.2-27.5c-4.3-7.6-12.5-12.8-20.2-16.4
			c-8.3-3.8-17.4-6.2-26.5-5.2c-17.3,1.8-30.3,13.4-34.1,30.4c-1.8,7.9-1.8,16.1-1.5,24.2c0.4,7.4,10.4,8.7,12.8,1.7
			c4.3-12.7,9.4-25,15.3-36.9c-4-1.7-7.9-3.3-11.9-5c-5.3,13.9-9.9,28-13.8,42.4c-1.9,7.1,8.2,11.5,11.9,5
			c8.4-14.7,15.6-30,21.5-45.9c-4.2-1.2-8.4-2.3-12.5-3.5c-5.4,16.3-9.4,33-11.9,50c-1.2,8.2,9.6,11.4,12.5,3.5
			c6.4-17.4,12.9-34.8,19.3-52.1c-4.2-1.2-8.4-2.3-12.5-3.5c-4.1,21.8-8.2,43.5-12.3,65.3c-1.6,8.2,9.8,11.4,12.5,3.5
			c7.3-21.1,14.2-42.3,20.6-63.7c-4.3-0.6-8.5-1.2-12.8-1.7c-0.7,19.1-1.5,38.2-2.2,57.3c-0.3,7.2,11.6,9.1,12.8,1.7
			c2.6-16,6.1-31.7,10.5-47.3c-4.3-0.6-8.5-1.2-12.8-1.7c1.2,19,0.3,38.1-3,56.8c2.7-1.5,5.3-3,8-4.5c-3.6-0.7-5.7-2.3-7.3-5.7
			c-2.3-4.7-8.7-3.7-11.2,0c-1.8,2.7-3.6,5.3-5.5,8c4,1.1,8.1,2.2,12.1,3.3c0.3-5,1.8-9.7,4.3-14c-3,0.8-5.9,1.6-8.9,2.3
			c0.8,0.3,0.9,0.3,0.3-0.1c4.3-0.6,8.5-1.2,12.8-1.7c-0.9-3.2-0.7-6,0.8-9c-3,0.8-5.9,1.6-8.9,2.3c1.7,1.3,1.9,4.1,1.1,5.8
			c-3.7,7.6,6.3,13.3,11.2,6.6c2.1-2.9,5.2,0.1,4.4,2.9c2.1-1.6,4.2-3.2,6.3-4.8c-0.2,0.1-0.5,0.2-0.7,0.3c0.3,2.6,0.7,5.3,1,7.9
			c2.4-4.1,7.6-5.8,11.8-3.4c-0.8-3-1.6-5.9-2.3-8.9c-3.1,5.6-10.1,7-15.4,3.5c-0.5,4-1,7.9-1.6,11.9c1.4-0.5,2.1-0.2,1.2,1.3
			c3.4-0.4,6.8-0.9,10.2-1.3c-1.9-1.6-2.9-3.1-3.5-5.5c-1.5,2.7-3,5.3-4.5,8c4.3-1.5,8.9-1.3,12.5,1.8c0.4-3.4,0.9-6.8,1.3-10.2
			c-1.3,0.9-2.9,1.3-3.9-0.3c-1.3,3.2-2.6,6.4-3.9,9.5c1.6-0.5,3-0.8,4.6-0.7c0.5,0.1,1,0.1,1.5,0.2c2.9,1.4,3.8-0.4,2.7-5.5
			c1.7-0.2,3.3-0.4,5-0.7c-0.3-0.1-0.6-0.1-0.9-0.2c1.6,2.1,3.2,4.2,4.8,6.3c0.4-4.8,2.7-9.3,4-13.9c1-3.7,1.7-7.5,1.9-11.4
			c0.5-8.2-1.1-16.5-4.4-24c-6.3-14-19.7-24.4-34.9-26.6c-5.1-0.7-10.7,4.3-7.3,9.5c9.7,15.1,14.2,32.4,13.4,50.3c4.3,0,8.7,0,13,0
			c-1.5-14.6-2.1-29.2-1.8-43.9c-4.3,0.6-8.5,1.2-12.8,1.7c4.9,16.9,9.2,34,12.8,51.2c1.6,7.5,12.3,5.3,12.8-1.7
			c0.9-14.7,0.8-29.3-0.1-44c-0.5-8.3-13.1-8.4-13,0c0.1,11.7,0.3,23.4,0.4,35.1c4.3,0,8.7,0,13,0c-0.6-8.5-1.2-17.1-1.8-25.6
			c-4,1.1-8.1,2.2-12.1,3.3c3.3,6.8,5.8,13.8,7.6,21.1c2.1,8.1,14.6,4.7,12.5-3.5c-2.1-8.4-5.2-16.4-9-24.2
			c-2.8-5.7-12.6-3-12.1,3.3c0.6,8.5,1.2,17.1,1.8,25.6c0.6,8.3,13.1,8.5,13,0c-0.1-11.7-0.3-23.4-0.4-35.1c-4.3,0-8.7,0-13,0
			c1,14.7,1,29.3,0.1,44c4.3-0.6,8.5-1.2,12.8-1.7c-3.6-17.2-7.9-34.3-12.8-51.2c-2-7-12.6-5.7-12.8,1.7
			c-0.2,14.7,0.4,29.3,1.8,43.9c0.8,8.2,12.6,8.5,13,0c1-20-4.3-40-15.2-56.9c-2.4,3.2-4.9,6.4-7.3,9.5c12.6,1.8,23.4,10,27.7,22.1
			c2.2,6.1,2.8,12.7,1.8,19.1c-1.2,7.6-4.8,14.4-5.5,22.1c-0.2,2.7,2.2,5.6,4.8,6.3c8.1,1.9,13.8-6.9,8.9-13.6
			c-4.7-6.3-15-6.6-21.8-4.6c-3.9,1.2-6.2,5.9-3.9,9.5c4.5,7.3,14.5,10,21.7,5c3.1-2.2,4.8-7.3,1.3-10.2c-7.1-5.9-16.2-8.2-25.1-5.1
			c-3.3,1.2-5.5,4.4-4.5,8c1.2,4.4,3.4,8.2,6.9,11.3c3.1,2.8,7.9,2.4,10.2-1.3c6.7-11-3.5-24.3-15.9-20.4c-5.5,1.7-6.2,8.7-1.6,11.9
			c11,7.4,26.8,3.3,33.2-8.2c1.7-3,0.8-7.1-2.3-8.9c-10.3-5.8-23.7-2.3-29.6,8.1c-1.3,2.3-1.2,6.1,1,7.9c3,2.4,5.9,3.8,9.9,3.5
			c2.9-0.2,5.5-1.9,6.3-4.8c2.1-7.5-1.1-15.7-8.3-19c-7.4-3.4-15.3-0.1-19.8,6.1c3.7,2.2,7.5,4.4,11.2,6.6
			c4.3-8.7,1.8-17.8-5.7-23.6c-2.7-2.1-7.4-0.5-8.9,2.3c-3.1,6.1-3.9,12.4-2.1,19c1.9,7.1,12.7,5.6,12.8-1.7
			c0.1-4.7-2.4-9.1-6.7-11.1c-3.2-1.4-7-1-8.9,2.3c-3.6,6.5-5.5,13.2-6,20.6c-0.5,6.9,8.8,8.2,12.1,3.3c1.8-2.7,3.6-5.3,5.5-8
			c-3.7,0-7.5,0-11.2,0c2.9,6,8.5,10.3,15,11.6c3.2,0.6,7.3-0.9,8-4.5c3.5-19.9,4.8-40.1,3.5-60.3c-0.5-7.1-10.7-9.1-12.8-1.7
			c-4.4,15.6-7.9,31.3-10.5,47.3c4.3,0.6,8.5,1.2,12.8,1.7c0.7-19.1,1.5-38.2,2.2-57.3c0.3-7.5-10.7-8.6-12.8-1.7
			c-6.4,21.4-13.2,42.6-20.6,63.7c4.2,1.2,8.4,2.3,12.5,3.5c4.1-21.8,8.2-43.5,12.3-65.3c1.6-8.3-9.6-11.3-12.5-3.5
			c-6.4,17.4-12.9,34.8-19.3,52.1c4.2,1.2,8.4,2.3,12.5,3.5c2.5-17,6.5-33.7,11.9-50c2.7-8-9.6-11.2-12.5-3.5
			c-5.5,14.8-12.3,29.1-20.2,42.8c4,1.7,7.9,3.3,11.9,5c3.8-14.4,8.4-28.5,13.8-42.4c2.6-6.8-8.6-11.6-11.9-5
			c-6.4,13-12,26.3-16.6,40c4.3,0.6,8.5,1.2,12.8,1.7c-0.6-11.7-0.8-26.2,8.2-35c10.1-9.8,26-7.6,37.4-1.6
			c6.1,3.2,12.2,7.1,13.9,14.2c1.7,7.5,1,16,1.2,23.7c0.2,8,0.4,16,0.6,24.1c0,1.3,1,7.2-0.2,8.2c-1.1,0.9-8.6-0.6-10.2-0.8
			c-13.8-1.5-25.7-6-34.5-17c-4.1-5.2-7.9-10.6-12.9-15.1c-4.5-4-10.8-8-10.5-14.8c0.3-6.7,4.9-13.2,8.3-18.6
			c3.5-5.6,7.5-10.6,14-12.6c13-4,29.9-3.1,41.6,4.2c13.2,8.3,14.1,22.3,13.7,36.5c-0.3,8.4-0.7,16.9-1.4,25.3
			c-0.3,3.9-0.7,7.9-1.3,11.8c-0.3,1.9-0.6,3.8-0.9,5.8c-0.2,1-0.3,1.9-0.5,2.9c-0.1,0.5-1.1,3.2,0.2,1.8c1.1-1.1,0.2-0.3-0.8-0.5
			c-0.7-0.2-1.6-0.2-2.3-0.3c-2.1-0.3-4.1-0.6-6.2-0.9c-3.8-0.6-7.6-1.2-11.4-2c-7.2-1.5-14.5-3.4-21.1-6.5
			c-12.5-5.9-22.7-15.8-30.2-27.3c-7.6-11.6-12.7-24.4-5.1-37.4c7.1-12.2,20.4-18,33.7-20.4c6.6-1.2,14.5-2.5,21.1-1.1
			c6.4,1.3,12.4,6.9,17.4,10.9c4.9,3.9,9.9,8.3,13.4,13.6c4.1,6.3,5.2,13.1,5.3,20.5c0.2,14.9-0.3,30.6-3.7,45.2
			c-0.8,3.4-1.8,6.8-3,10.2c-0.8,2.3-2,7-4.4,7.5c-2.8,0.6-7.9-1.9-10.6-2.7c-4.2-1.2-8.4-2.6-12.6-4c-7.5-2.5-14.8-5.2-22.2-7.9
			c-7.1-2.6-14.6-5-20.6-9.7c-9.4-7.4-14.2-19.1-16.5-30.5c-1.2-5.8-1.6-11.8-1.6-17.7C1068.4,279.2,1055.4,279.2,1055.4,287.6
			L1055.4,287.6z"/>
	</g>
</g>
<g id="turtle_x5F_shells">
	<g>
		<g>
			<path class="st15" d="M1067.6,273.6c-1.8,16.1-0.3,32.3,4.6,47.8c1.3,4.2,6,5,9.2,2.4c5.8-4.7,11.3-9.7,16.4-15.2
				c4.2-4.6,10.8-10.5,9.1-17.5c-1.3-5.4-7.6-9.4-11-13.4c-4.7-5.4-8.4-11.6-11.5-18.1c-2.3-4.8-8.5-2.6-10.1,1.3
				c-1.9,4.6-3.7,9.2-5.6,13.7c3.6,0.5,7.2,1,10.8,1.5c0.3-3.1,1.4-5.9,2.9-8.5c-3.4-1.4-6.7-2.8-10.1-4.2
				c-4.4,14.4-4.1,29.7,1,43.9c1.7,4.8,9.3,5.6,10.6,0c2.3-9.9,3.4-19.9,3-30.1c-3.6,0.5-7.2,1-10.8,1.5c2,7.4,2.8,14.7,2.4,22.4
				c-0.2,4.5,6.3,7.6,9.4,3.9c2.6-3.1,5.1-6.2,7.7-9.3c-3.1-1.3-6.3-2.6-9.4-3.9c0,0.2,0.1,0.4,0.1,0.6c3.4,1.4,6.7,2.8,10.1,4.2
				c0.8-4.3,0.7-8.4-0.5-12.6c-2-6.9-11.8-3.9-10.6,2.9c0.1,0.5,0.2,0.9,0.2,1.4c1.2,7,11.8,4,10.6-2.9c-0.1-0.5-0.2-0.9-0.2-1.4
				c-3.5,1-7.1,1.9-10.6,2.9c0.7,2.3,0.9,4.4,0.5,6.8c-1,5.6,7.4,10.4,10.1,4.2c0.9-2.1,1.5-3.9,1.4-6.2c-0.1-4.4-6.2-7.7-9.4-3.9
				c-2.6,3.1-5.1,6.2-7.7,9.3c3.1,1.3,6.3,2.6,9.4,3.9c0.4-8.6-0.5-17-2.8-25.3c-1.6-5.9-11.1-4.9-10.8,1.5
				c0.4,9.2-0.4,18.2-2.6,27.1c3.5,0,7.1,0,10.6,0c-4.4-12.5-4.8-25.4-1-38.1c1.8-6-6.9-9.6-10.1-4.2c-2.6,4.4-3.9,9-4.4,14.1
				c-0.7,6.7,8.7,6.7,10.8,1.5c1.9-4.6,3.7-9.2,5.6-13.7c-3.4,0.4-6.7,0.9-10.1,1.3c4.6,9.8,11,18.7,18.8,26.2c0.4,0.4,2,1.4,2.1,2
				c0.2,1.2-2.1,3.3-2.8,4c-1.7,2-3.6,4-5.4,5.9c-4.4,4.5-9,8.7-13.9,12.6c3.1,0.8,6.1,1.6,9.2,2.4c-4.6-14.6-5.9-29.7-4.2-44.9
				C1079.4,266.6,1068.4,266.7,1067.6,273.6L1067.6,273.6z"/>
		</g>
	</g>
	<g>
		<g>
			<path class="st15" d="M1088.1,338.4c12.5,9.4,26.1,17,40.7,22.5c5.9,2.3,11.2,2.6,14.3-3.9c0.3-0.7,0.6-1.4,0.9-2
				c-1.3,0.8-1.4,1.2-0.4,1.3c0.5,0.7,3.5,0.7,4.3,0.7c3.1-0.1,5.5-1.6,7.1-4.3c2.9-4.6-2.9-10.4-7.5-7.5c-3.5,2.2-7,3.4-11.1,3.5
				c-5.8,0.2-7,7.1-2.8,10.2c5.2,3.9,14.1,10.3,20.4,4.8c6.7-5.9,0.3-14.4-6.2-16.3c-9-2.7-17.6-5.1-26.3-9.1
				c-8.9-4.1-17.6-8.3-26.5-12.5c-1.4,3.4-2.8,6.7-4.2,10.1c9.8,1.5,19.4,3.8,28.9,6.7c4.7,1.5,9.4,3.1,14.1,4.7
				c2.3,0.8,4.7,1.7,7,2.5c1.2,0.4,2.3,0.8,3.5,1.3c1.1,1.1,1.7,1.1,1.9,0.1c0.3-0.9,0.4-0.6,0.2,0.9c-0.3,0.9-1,1.1-2.1,0.6
				c-2.3,0.3-5.1-0.3-7.4-0.7c-4.8-0.9-9.5-2.6-13.9-4.8c-8.7-4.3-16.4-10.2-24.1-16.1c-5.5-4.3-13.4,3.4-7.8,7.8
				c10.5,8.1,20.9,16.1,33.4,21c8.5,3.3,28.5,9,32.3-3.5c1.4-4.6,0.7-10.8-3.7-13.4c-5.3-3.2-12.4-4.7-18.2-6.7
				c-13.4-4.7-27.1-8.7-41.2-10.8c-5.6-0.8-10.4,7.1-4.2,10.1c11.3,5.3,22.6,11,34.1,15.8c5.3,2.2,10.6,4.2,16.2,5.6
				c1.2,0.3,2.9,1.1,4.3,1c1.4,0.9,2.3,0.5,2.6-1.3c1.5-1.1,1.6-1.8,0.3-2.1c-0.6-0.8-2.7-1.4-3.7-2c-1.4-0.9-2.8-1.9-4.2-2.9
				c-0.9,3.4-1.9,6.8-2.8,10.2c6-0.3,11.5-1.9,16.7-5c-2.5-2.5-5-5-7.5-7.5c1.9-0.8,2.3-1.2,1-1.5c-0.6-0.2-1.3-0.4-2-0.6
				c-1.1-0.2-2.3-0.3-3.5-0.2c-2.5,0.3-4.6,1.6-6,3.6c-0.6,0.8-1.1,1.6-1.3,2.5c-0.2,0.5-0.4,0.9-0.6,1.4c0.6-0.3,1.2-0.7,1.9-1
				c0-0.2-8.5-3.4-9.2-3.6c-11.4-5-22.2-11.5-32.1-19C1088,324.6,1082.6,334.2,1088.1,338.4L1088.1,338.4z"/>
		</g>
	</g>
	<g>
		<g>
			<path class="st15" d="M1120.9,271.5c-0.2-2.2-0.7-5.1,0.2-7.2c1.3-2.9,3.6-2,6.2-1c5.6,2.1,11.1,4.8,16.6,7.1
				c4.1,1.8,9.2,2.8,10.8,7.3c2,5.3,3.1,11,3.9,16.6c3.1-1.8,6.1-3.6,9.2-5.4c-14-13.3-31.6-21.2-50.7-23.1c1.8,2.3,3.5,4.6,5.3,7
				c0.3-1.6,13.5,3.2,15.1,3.8c2.3,0.8,4.7,1.5,7,2.3c2,0.7,5.3,1,6.8,2.7c4.8,5.3,12.5-2.5,7.8-7.8c-2.8-3.1-6.9-4-10.8-5.2
				c-5-1.6-9.9-3.2-14.9-4.9c-7.6-2.5-19.8-4.9-21.6,6.2c-0.6,3.8,1.5,6.6,5.3,7c16.1,1.6,31.2,8.7,43,19.8c4.3,4.1,9.9-0.2,9.2-5.4
				c-1-7.2-2.3-17.8-7.4-23.5c-5-5.7-14.6-7.9-21.4-10.8c-6.8-2.9-15.4-8.3-22.9-4.5c-7.2,3.6-8.2,11.8-7.7,19
				C1110.4,278.5,1121.4,278.6,1120.9,271.5L1120.9,271.5z"/>
		</g>
	</g>
	<g>
		<g>
			<path class="st15" d="M1150.1,330.6c3.5-7.8,12-11.6,17.5-17.9c-3.1-0.8-6.1-1.6-9.2-2.4c0.5,3.1,1.2,7.9-0.6,10.6
				c-1.6,2.4-4.9,4.5-7.1,6.3c2.2-0.3,4.4-0.6,6.7-0.9c-1.7-1-3.4-2-5.1-3c-6.1-3.6-11.6,5.9-5.6,9.5c1.7,1,3.4,2,5.1,3
				c2.3,1.4,4.7,0.7,6.7-0.9c3.9-3.1,8.5-6.3,10.2-11.1c1.8-5.2,1.3-11.1,0.4-16.5c-0.7-4-6.6-5.4-9.2-2.4
				c-6.1,7.1-15.2,11.3-19.2,20.2C1137.7,331.4,1147.2,337,1150.1,330.6L1150.1,330.6z"/>
		</g>
	</g>
	<g>
		<g>
			<path class="st15" d="M1118.1,316.8c2-3.8,3.7-7.7,5.3-11.7c0.7-1.9,1.4-3.8,2-5.8c0.4-1.1,0.7-2.2,1-3.4c0.6-1.9,0.6-2.2,0.2-1
				c-1.3,0.5-2.6,1.1-3.9,1.6c3.4,0.2,7.1,1.8,10.4,2.6c0.1,0,4.7,1.3,4.8,1.2c-0.3-1.7-0.8-2.1-1.7-1.4c-0.6,0.3-1.2,0.6-1.8,0.9
				c-6.8,3.2-13.8,6.1-20.7,8.9c2.1,2.7,4.1,5.4,6.2,8.1c2.2-3.1,5.3-5.4,7.8-8.2c1.1-1.3,2.2-2.6,3.1-4c1-1.7,1-1.7,0-0.2
				c1.1,0,2.2,0,3.2,0c7.1,0.1,7.1-10.9,0-11c-2.7,0-5.8-0.5-8.3,0.6c-2.4,1-3.1,3-4.5,5c-3,4.6-7.8,7.7-11,12.2
				c-2.6,3.7,1.8,9.9,6.2,8.1c8.5-3.5,18-6.5,25.8-11.3c6.6-4,8.7-13.2,0.9-17.4c-3.8-2-8.5-2.6-12.6-3.6c-3.9-1-8.3-2.9-11.8,0
				c-3,2.5-3.4,7.3-4.5,10.9c-1.5,4.5-3.5,8.9-5.7,13.1C1105.3,317.5,1114.8,323.1,1118.1,316.8L1118.1,316.8z"/>
		</g>
	</g>
	<g>
		<g>
			<path class="st15" d="M303.3,322.8c0.9-11.8-1.5-23.5-0.1-35.3c-3.7,0-7.3,0-11,0c-1.1,9.2-1.1,18.4-0.9,27.6
				c0.1,3.2-0.4,7,1.7,9.7c2.3,3,5.4,2.5,8.7,2.7c3,0.1,5.5-2.6,5.5-5.5c-0.1-13.8-0.5-27.7-4.1-41.1c-1.6-5.8-11.6-4.9-10.8,1.5
				c1.7,13.4,4.3,26.5,8.2,39.5c2,6.8,12.6,3.9,10.6-2.9c-3.5-12-6.2-24.2-7.8-36.5c-3.6,0.5-7.2,1-10.8,1.5
				c3.4,12.5,3.6,25.3,3.7,38.2c1.8-1.8,3.7-3.7,5.5-5.5c-1.1-0.1-2.9-0.6-1.6,0.3c0.8,1.1,1.7,2.2,2.5,3.3
				c-0.7-1.8-0.3-4.7-0.3-6.8c-0.1-2.9-0.1-5.7-0.1-8.6c0.1-5.7,0.4-11.4,1-17.1c0.8-7-10.2-6.9-11,0c-1.4,11.8,0.9,23.5,0.1,35.3
				C291.8,329.8,302.8,329.8,303.3,322.8L303.3,322.8z"/>
		</g>
	</g>
	<g>
		<g>
			<path class="st15" d="M318.2,309.7c12.6-0.3,22.3-13.2,29.9-21.8c-3.1-1.8-6.1-3.6-9.2-5.4c-0.7,5.1-3.1,9.8-5.7,14.3
				c-3,4.9-6.9,5.6-12.2,4.2c-6.9-1.7-9.8,8.9-2.9,10.6c7.5,1.9,15.6,1.5,21.2-4.5c5.1-5.5,9.3-14.2,10.3-21.6
				c0.6-4.8-5.1-10-9.2-5.4c-3.2,3.7-6.5,7.4-10,10.8c-3.2,3.1-7.3,7.7-12.1,7.8C311.1,298.9,311.1,309.9,318.2,309.7L318.2,309.7z"
				/>
		</g>
	</g>
	<g>
		<g>
			<path class="st15" d="M322,282.3c-0.1-5,0.1-10,1-15c-2.3,1.3-4.5,2.6-6.8,3.8c1.8,0.7,4.2,1.1,5.7,2.1c-0.9-1.6-1.8-3.2-2.7-4.7
				c0,0.2,0,0.3-0.1,0.5c0.3-0.9,0.5-1.9,0.8-2.8c-0.9,1.9-1.9,3.8-2.8,5.7c-0.7,1.5-1.3,3.7-2.4,4.8c0.8-0.5,1.6-0.9,2.4-1.4
				c-0.3,0.1-0.5,0.1-0.8,0.2c1.4,3.4,2.8,6.7,4.2,10.1c4.6-3.4,12.7-8.8,13.1-15.2c0.4-7.6-8.2-9.8-14.2-10.8
				c-3.2-0.5-5.6,0.8-6.8,3.8c-1,2.7-0.6,5.8,1.1,8.1c1.7,2.4,4.8,3.6,7.5,2c2.4-1.4,3.7-5.1,2-7.5c-0.3,0.5-0.2,0.6,0,0.3
				c-2.3,1.3-4.5,2.6-6.8,3.8c2.1,0.3,6.1,0.6,7.4,2.3c-0.5-0.8-0.9-1.6-1.4-2.4c0.1-0.4,0.1-0.7,0.2-1.1c-0.4,0.4-0.8,0.9-1.2,1.3
				c-0.7,0.7-1.4,1.4-2.1,2.1c-1.4,1.3-2.9,2.5-4.4,3.6c-4.9,3.6-2.1,11.5,4.2,10.1c3.9-0.9,5.2-4.3,6.8-7.5
				c1.6-3.3,3.7-6.6,4.2-10.2c0.2-1.9-1.2-3.8-2.7-4.7c-2.4-1.6-5.7-2.3-8.4-3.2c-2.6-1-6.3,1.1-6.8,3.8c-1,5.9-1.5,11.9-1.4,17.9
				C311.2,289.4,322.2,289.4,322,282.3L322,282.3z"/>
		</g>
	</g>
</g>
</svg>
