<?xml version="1.0" encoding="utf-8"?>
<!-- Generator: Adobe Illustrator 24.0.0, SVG Export Plug-In . SVG Version: 6.00 Build 0)  -->
<svg version="1.1" id="Layer_1" xmlns="http://www.w3.org/2000/svg" xmlns:xlink="http://www.w3.org/1999/xlink" x="0px" y="0px"
	 viewBox="0 0 528.8 528.6" style="enable-background:new 0 0 528.8 528.6;" xml:space="preserve">
<style type="text/css">
	.st0{opacity:0.8;fill:#F7F7F7;}
	.st1{opacity:0.8;fill:#46999B;}
	.st2{font-family:'Cubano-Regular';}
	.st3{font-size:300px;}
	.st4{fill:#133030;}
	.st5{display:none;fill:#133030;}
	.st6{display:none;fill:#D8E25B;}
	.st7{display:none;fill:#014B63;}
	.st8{display:none;fill:#143030;}
	.st9{display:none;}
	.st10{display:inline;}
	.st11{fill:#31787E;}
	.st12{fill:#08A6AF;}
</style>
<circle class="st0" cx="264.4" cy="264.4" r="264.4"/>
<text transform="matrix(1 0 0 1 113.9025 291.8224)" class="st1 st2 st3">1</text>
<path id="Kemp_ridley" class="st4" d="M286.7,357.3c0,0-0.6-33,16.6-48.9s17.2-15.9,17.2-15.9s6.9-9-9-5.5
	c-15.9,3.4-49.6,8.3-17.2-11.7s53.1-8.3,57.9,0c4.8,8.3,4.8,25.5,14.5,17.2s23.4-28.3,36.5-22.7c13.1,5.5,6.9,20-6.9,28.3
	s-22.1,15.9-9,22.1s28.3,15.9,26.9,38.6s-12.4,53.9-16.5,27.6s-5.5-48.3-12.4-41.4s-1.4,21.4-20,33.1s-42.1,14.5-42.1,14.5
	s5.5,20,3.4,29.6c-2.1,9.7-17.2,7.6-20-10.3s-2.8-17.9-2.8-17.9s-12.4,2.8-13.8-3.4s-2.1-11-2.1-11s-22.1,0-29-16.5
	C244.8,337.4,286.7,357.3,286.7,357.3z"/>
<path id="Olive_ridley" class="st5" d="M300.5,361.7c0,0-1.2-29,18.1-45.9c19.3-16.9,25.3-16.9,22.3-16.9s6-8.4-14.5-4.2
	c-20.5,4.2-32.6,10.3-31.4-1.2c1.2-11.5,22.3-30.2,56.7-29c34.4,1.2,29.6,41.6,35,41s20.5-21.7,30.8-33.2s44.1,7.2,18.7,24.1
	c-25.4,16.9-38,26.6-27.2,32s36,13.9,36.4,36.8c0.4,22.9-14.1,73.6-20.7,38s-8.4-43.5-19.9-26.6s-35.6,29-47.1,30.2
	s-14.5,2.9-14.5,2.9s3.6,25.4,1.8,33.9c-1.8,8.4-12.7,18.7-20.5,0c-7.8-18.7-6-30.8-6-30.8s-15.7-0.2-16.9-3.1
	c-1.2-2.9-2.4-13.2-2.4-13.2s-29.7-3.1-34.4-24.4C260.1,351.2,300.5,361.7,300.5,361.7z"/>
<path id="Loggerhead_1_" class="st5" d="M195.8,270.1c0,0,5.2-44.4,28.4-62.2s32.6-30.6,13.7-26.3s-64.4,18-38.7-6
	s31.8-28.4,63.6-22.3c31.8,6,24.1,35.2,35.2,37.8c11.2,2.6,19.8-6,31.8-19.8s25.8-15.5,37.8-10.3s3.4,25.8-8.6,32.6
	c-12,6.9-31.8,18-24.9,26.6s46.4,23.2,43.8,49.8s-17.2,89.4-22.3,61s-10.3-75.6-21.5-59.3s-20.5,41.2-49.3,49
	c-28.9,7.7-37.4,1.9-34.9,13.8s13.7,47.1-8.6,43s-19.8-52.6-19.8-52.6s-15.5,5.2-21.5,1.7s0-22.3,0-22.3s-25.8-0.1-36.1-11.7
	c-10.3-11.5-24.1-23.6,0-24.4S195.8,270.1,195.8,270.1z"/>
<path id="Hawksbill_1_" class="st5" d="M184.9,284.6c5.5-7.4,11.1-56.3,41.5-78.5s39.7-28.6,26.8-31.4s-72,12.9-62.8-7.4
	s68.3-35.1,95.1-25.8c26.8,9.2,15.7,48.7,24.9,46c9.2-2.7,33.2-26.7,45.2-43.3s51.7-4.6,36.9,19.4s-54.5,37.5-48.9,46.9
	s44.3,20.5,45.2,40.8s-19.4,83.1-29.5,85.8s-8.3-33.3-5.5-45.3c2.8-11.9,3.7-51.6-10.2-33.2s-10.2,41.5-48.9,59.1
	c-38.8,17.5-53.5,19.5-53.5,19.5s18.5,45.1,10.2,52.5s-32.3-2.8-34.2-24s-5.5-25.8-5.5-25.8s-26.8,4.6-26.8-1.8s0-27.7,0-27.7
	s-29.5,10.2-39.7-0.9s-24.9-28.6,7.4-26.8S184.9,284.6,184.9,284.6z"/>
<path id="Flatback" class="st5" d="M204.3,345.2c0,0-4.9-41.5,26.6-74s49.2-40.1,41.4-48.1S210.6,220,204,217s4-46.3,70.1-49.2
	s59.2,47.6,62.2,55.3c3,7.7,18.7,19.5,29.5,6.7s22.7-40.4,47.3-40.4s39.4,25.6,10.8,45.3s-51.2,37.4-34.5,45.3s57.1,29.5,62,59.1
	s-11.8,85.7-22.7,71.9c-10.8-13.8-16.7-56.9-28.6-65.9c-11.8-9-12.8,16.6-38.4,36.3c-25.6,19.7-55.2,26.6-68.9,27.6
	c-13.8,1-13.8,21.7-17.7,42.4c-3.9,20.7-39.4,44.3-38.4,0s-6.9-47.3-19.7-34.5s-18.7,3-14.8-12.8s3-21.7-19.7-19.7
	s-56.1-33.2-21.7-39.3S200.3,349.3,204.3,345.2z"/>
<path id="Green_1_" class="st6" d="M156.1,281.7c0,0,4.3-70.5,38.7-94.2s58-30.1,51.5-45.1c-6.4-15-76.2-3.2-78.4-10.7
	c-2.1-7.5-27.9-29,48.3-27.9s90.2,19.2,92.3,43.4s30.1,21,46.2-8s48.3-27.9,58-12.9s7.5,38.7-18.3,52.6c-25.8,14-38.7,29-12.9,44
	c25.8,15,59.1,20.8,55.8,58.7c-3.2,37.9-47.2,116.3-54.8,101.3s18.3-103.7,1.1-101.3s-8.6,54-50.5,75.5s-96.6,10.2-93.4,27.7
	c3.2,17.4,21.5,72.2-7.5,66.8c-29-5.4-31.1-22.5-31.1-52.6s-8.6-21.5-24.7-23.6S152.8,358.2,156,341c3.2-17.2-15,11.8-44-1.1
	S61.5,312,91.6,299.1S155.5,288.2,156.1,281.7z"/>
<path id="Leatherback" class="st7" d="M111.8,325.7c4.5-3.3,58-104.8,94.8-132.7s60.2-46.9,19-41.9c-41.3,5.1-104.8,45.2-104.8,16.2
	s86.1-73.6,126.7-74.7s62.9,46.8,65.1,68s41.3-12.3,50.2-30.1c8.9-17.8,36.8-39,59.1-31.2c22.3,7.8,20.1,30-7.8,51.8
	s-65.8,50.8-46.8,63.1s82.5,45.7,74.7,85.9c-7.8,40.1-43.5,73.6-54.6,97c-11.2,23.4-43.5,63.6-19-31.2s16.7-101.5,0-84.8
	c-16.7,16.7-33.5,65.8-82.5,90.3s-81.4,29-83.6,35.7c-2.2,6.7,15.6,53.5,0,61.3s-39-1.1-42.4-29s-4.5-33.5-21.2-30.1
	c-16.7,3.3-21.2-6.7-20.1-20.1s-6.7-6.7-25.6-10c-19-3.3-68-42.4-31.2-46.8C98.4,328,111.8,325.7,111.8,325.7z"/>
<path id="Olive_ridley_1_" class="st8" d="M192.7,376.8c0,0-44.9-40.4-42-93.7c2.9-53.4,11.7-62.4,7.3-57.9s-3.8-21.3-27.4,15.4
	s-32.1,63.6-47.4,45.1c-15.4-18.5-12.5-77.2,39.3-126.7s105.1,16.5,112.1,7.5s-2.5-62.2-4.7-94.2s74.9-55.1,63.2,7.2
	c-11.7,62.4-15.7,95.3,8.2,87c23.9-8.3,73-33.4,107.8-0.7S498.4,294,435.7,252s-77.1-50.6-68.6-9c8.5,41.7-8.6,95.2-23.5,114.1
	S326.9,383,326.9,383s43.2,31.6,53.1,46.6s9.4,46.1-29.9,30.6s-54.7-35.8-54.7-35.8s-23.1,23.1-29.2,20.7S243,429.5,243,429.5
	s-47.9,39.7-86.4,15.9C118.2,421.5,192.7,376.8,192.7,376.8z"/>
<g class="st9">
	<g class="st10">
		<path class="st11" d="M189.5,213.8c-15.5,34.7-14.7,73.7-1.5,109c6.4,17.1,14.9,33.3,25,48.5c10.1,15.1,21.7,29.2,37.5,38.5
			c5.8,3.4,14.3,2.6,19-2.5c11.6-12.5,23.2-24.9,34.7-37.5c11.1-12.1,21.9-24.8,29.3-39.6c7.3-14.6,11.6-29.9,13.5-46.1
			c1.8-15.3,1.2-32.4-3.8-47.1c-5.2-15.6-16.1-28-30.4-35.9c-15.1-8.3-31.9-11.1-48.7-13.1c-17.4-2-34.7-2.3-51,5
			c-14.7,6.6-26,20.1-28.2,36.3c-2.3,16.8,2.9,34.8,7.5,50.8c4.5,15.6,10.2,30.7,16.4,45.7c3.4,8.2,6.9,16.3,10.5,24.4
			c3.7,8.3,6.5,17.4,14.3,22.7c14.2,9.8,33.9,1.4,44.2-10.1c9.9-11,15.6-24.8,22-38c7.3-15.1,16.3-30.5,20.2-47
			c3.5-15,2.7-32.6-6.7-45.5c-10.9-15-27-19-44.5-20.8c-8.3-0.8-16.6-1.5-24.9-1.9c-8.2-0.4-16.8-1.2-25-0.6
			c-12.5,1.1-20.2,10.2-20,22.6c0.1,7.4,1.2,14.9,3,22.1c3.3,13.6,9.4,26.6,15.7,39.1c3.2,6.3,6.4,12.5,9.6,18.7
			c1.4,2.8,2.8,5.6,4.1,8.4c0.7,1.4,1.3,2.8,1.9,4.2c1.3,2.9,0.5,1.2,0.2,0.5c0.4,1,0.8,1.9,1.1,2.9c2.4,6.2,4.3,12.6,5.7,19.1
			c3.6,17.1,32.3,13.6,30.8-4.2c-3-37.2-6-74.5-9-111.7c-9.8,2.6-19.5,5.3-29.3,7.9c15.2,22.3,26.2,44.9,34,69.8
			c2.4,7.8,11.1,13.6,19.3,11c8.1-2.6,13.3-10.8,11-19.3c-0.6-2.2-1.1-4.5-1.6-6.7c-0.6-2.9-0.1,0.5-0.4-2.7
			c-0.3-3.7-0.4-7.5-0.1-11.2c0-0.9,0.1-1.7,0.2-2.6c-0.2,1.3-0.2,1,0.1-1c0.3-1.7,0.6-3.4,1.1-5.1c1-3.9,2.3-7.7,3.9-11.4
			c-9.6,1.3-19.1,2.5-28.7,3.8c1.2,1.7,2.4,3.5,3.4,5.4c0.5,0.9,1,1.9,1.4,2.8c-0.7-1.5-0.1-0.2,0.2,0.6c1.4,4.3,2.5,8.6,3.2,13.1
			c0.4,2.7-0.2-2.1,0.1,0.6c0.1,1.1,0.2,2.1,0.3,3.2c0.2,2.2,0.3,4.3,0.4,6.5c0.2,4.6,0.1,9.2,0.1,13.8c-0.1,8.2,7.3,16.1,15.7,15.7
			c8.6-0.4,15.5-6.9,15.7-15.7c0.1-6.2,0.2-12.3,0.4-18.5c-8.9,3.7-17.9,7.4-26.8,11.1c0.8,0.6,1.5,1.2,2.2,1.9
			c2,1.8-0.1-0.5,0.6,0.8c1.1,2.1-0.5-2.1,0.2,0.2c0.2,0.8,0.5,3.7,0.3,0.8c10.5,0,20.9,0,31.4,0c-1.5-19.3-5.1-38.3-11.5-56.6
			c-3.3-9.5-6.8-18.9-13.4-26.6c-5.8-6.7-14.2-11.2-22.9-13c-15.4-3.2-37.7-4.6-49.8,7.4c-8.1,8-9.8,20.3-5.5,30.6
			c3.9,9.2,11.2,14.9,17.5,22.3c1.2,1.4,0,0-0.2-0.3c0.7,1,1.4,2,2,3.1c1,1.7,1.9,3.4,2.7,5.2c1,2.3-0.7-2.1,0.1,0.3
			c0.4,1.2,0.8,2.3,1.1,3.5c0.5,1.9,0.9,3.8,1.3,5.7c-0.5-3,0.1,2.2,0.1,3.1c0.1,2,0,3.9-0.2,5.9c-0.2,3.2-0.1,0.8,0,0.2
			c-0.2,1.2-0.5,2.4-0.8,3.6c-0.2,0.7-0.4,1.4-0.6,2.1c-0.1,0.2-1.7,4.6-0.5,1.7c-3.2,7.5-2.5,17.2,5.6,21.5
			c6.7,3.6,18,2.4,21.5-5.6c6.1-14.3,7.9-29.1,4.3-44.4c-1.6-6.9-4.6-13.9-8.4-19.8c-4.4-6.7-10.2-11.6-15.3-17.5
			c-1.2-1.3-0.5-0.5-0.2-0.2c-0.4-0.6-0.7-1.5-1.2-2c-1-1.2,0.2,1.9,0.1,0.4c-0.1-1.4-0.2,1.4-0.9,2.4c-0.5,0.8-1.1,1.1-1.8,1.7
			c1.3-1.1,0.9-0.4-0.5,0c0.8-0.2,4.7-1.2,2.9-0.9s1.8-0.1,2.5-0.1c3.1-0.1,6.2-0.1,9.3,0.1c1.5,0.1,3,0.2,4.6,0.3
			c3,0.2-1-0.4,1.8,0.3c1.7,0.4,3.4,0.8,5,1.4c1.7,0.6-0.2,0-0.4-0.1c0.8,0.5,1.7,0.9,2.5,1.5c-2-1.3,0.9,1,1.4,1.6
			c-1.3-1.5,0.9,1.5,1.2,2.1c0.8,1.4,1.5,2.9,2.2,4.3c-0.8-1.8,1,2.7,1.2,3.4c3.1,8.5,5.7,17.3,7.7,26.2c2.1,9.3,3.2,16.7,3.9,25.6
			c0.7,8.2,6.8,16.1,15.7,15.7c8-0.4,16.3-6.9,15.7-15.7c-0.7-9.9-4.4-19.6-12.5-25.9c-5.1-4-10.8-5.9-17.2-3.2
			c-5.8,2.4-9.5,8-9.7,14.4c-0.1,6.2-0.2,12.3-0.4,18.5c10.5,0,20.9,0,31.4,0c0.2-21.1-0.7-43.9-13.2-61.8c-3.7-5.3-9-8.4-15.6-7.5
			c-6.7,0.9-10.5,5.3-13.1,11.2c-7.6,18-8.3,38.6-3.2,57.3c10.1-2.8,20.2-5.6,30.3-8.3c-8.5-27.4-21-53.6-37.1-77.3
			c-3.8-5.6-10.8-9.4-17.7-7.2c-6.2,2-12.1,8.1-11.5,15.1c3,37.2,6,74.5,9,111.7c10.3-1.4,20.6-2.8,30.8-4.2
			c-4.3-20.9-14.8-39.8-24.4-58.6c-2.2-4.4-4.4-8.8-6.5-13.2c-0.5-1.2-1.1-2.3-1.6-3.5c-0.7-1.5,0.5,1.4-0.5-1.2
			c-0.9-2.4-1.8-4.7-2.7-7.1c-1.6-4.7-3-9.6-3.9-14.5c-0.2-1-0.4-2-0.5-3c0.4,2.9,0-0.5,0-1.1c-0.1-1.2,0-2.6-0.2-3.8
			c-0.5-3,0.2,0.1-0.7,1.3c-1.9,1.9-3.8,3.8-5.6,5.6c-3.5,2.3-6.2,1-2.2,1c1.6,0,3.2,0,4.8,0.1c2.6,0,5.1,0.1,7.7,0.2
			c6.4,0.2,12.8,0.5,19.2,1c5.7,0.4,11.3,1,16.9,1.5c0.4,0,3.1,0.4,0.7,0c1.1,0.2,2.2,0.3,3.2,0.5c2.6,0.5,5.3,1.1,7.8,2.1
			c-2.5-0.9,4.8,3.2,2.6,1.4c0.9,0.7,3.7,4.5,2.3,2.2c0.7,1,1.2,2.1,1.8,3.1c1.2,2.2-0.7-2.1,0.1,0.3c0.4,1.2,0.8,2.3,1.1,3.5
			c0.2,0.7,0.7,4.9,0.4,1.7c0.8,8.6-1.8,17.2-5,24.4c-5,11.1-10.5,22-15.8,33c-4.1,8.4-7.8,17.2-13.5,24.8c1.8-2.4-0.1,0-0.6,0.6
			c-0.8,0.8-1.6,1.6-2.3,2.4c-0.4,0.5-2.3,1.9,0.1,0.1c-0.7,0.5-1.4,1-2.2,1.4c-0.2,0.1-3.8,1.5-1.6,0.9c2.3-0.7-1.8,0.4-1.8,0.4
			c1.6-0.4,1.9,0.6,0.1-0.1c0.8,0.3,6.5,1.6,5.2,3.4c0.3-0.4-2.5-5.4-2.9-6.2c-1.3-2.8-2.5-5.7-3.8-8.5c-2.2-5-4.7-10.7-6.7-15.3
			c-8.5-20.3-16.6-42.4-21.5-64.4c-0.6-2.7-1.2-5.5-1.7-8.2c-0.2-1.2-0.4-2.3-0.6-3.5c0.3,1.9-0.1-0.9-0.1-1.1
			c-0.2-2.8-0.5-5.9-0.1-8.8c-0.1,0.8-0.4,2,0.3-1c1.1-4.4-1.3,1.5,0.6-1.9c0.5-0.9,1-1.7,1.5-2.5c2.2-3.7-1.1,1,0.7-0.8
			c0.7-0.7,1.3-1.4,2.1-2.1c0.5-0.5,3.1-2.2,0.8-0.8c1.6-1.1,3.4-2,5.1-3c4-2.2-1.5,0.4,1-0.4c1.5-0.5,2.9-1,4.4-1.3
			c4.5-1.1,7.9-1.3,13.2-1.3c6.2,0.1,12.4,0.7,18.5,1.4c4.4,0.5,8.5,1.1,14,2.3c2.4,0.5,4.8,1.1,7.1,1.8c1.5,0.4,2.9,0.9,4.4,1.4
			c0.9,0.3,1.7,0.6,2.6,0.9c-0.9-0.4-0.9-0.4,0.1,0c2.1,0.9,4.2,2,6.1,3.2c0.9,0.5,1.8,1.1,2.6,1.6c-0.3-0.2,3.7,2.7,2.1,1.5
			c2.5,2,5.8,5.5,7.2,7.9c4.8,7.8,5.7,16.9,6.1,25.9c0.8,21.9-4.6,42.1-17.1,60.8c-6.5,9.7-15.2,18.8-23.7,28
			c-9.4,10.2-18.9,20.3-28.3,30.5c6.3-0.8,12.7-1.6,19-2.5c-3.9-2.3-4.9-3-7.5-5.2c-2.9-2.5-5.6-5.2-8.2-8.1
			c-2.6-2.9-3.8-4.5-5.3-6.5c-2.1-2.9-4.2-5.9-6.2-8.9c-4.3-6.6-8.4-13.3-12.1-20.3c-3.7-6.9-6.6-13.2-8.8-19.3
			c-2.6-7.1-4.8-14.3-6.5-21.7c-0.5-2.3-0.9-4.6-1.3-6.9c-0.1-0.4-0.7-5-0.4-2.8c-0.5-4.1-0.8-8.1-0.9-12.2
			c-0.3-14.4,1.9-29,7.4-41.3c3.3-7.5,2.4-17.2-5.6-21.5C204.2,204.5,193.1,205.8,189.5,213.8L189.5,213.8z"/>
	</g>
</g>
<g class="st9">
	<g class="st10">
		<path class="st12" d="M267.3,360.7c-12.5-25.7-32.4-46.9-43.6-73.3c-7.6,4.5-15.3,8.9-22.9,13.4c7.4,16.8,16.3,32.8,25.8,48.4
			c4.7,7.7,9,17,15.1,23.6c3.6,3.9,8.3,6,13.6,5.7c3.1-0.1,6.1-1.1,8.8-2.8c0.4-0.3,4.6-3.1,2.2-2.1c7.7-3.2,12.8-11.4,7.9-19.5
			c-17.2-28.4-34.9-57.2-59.1-80.3c-4.8-4.5-12.2-5.2-17.4-1c-4.6,3.7-7.5,11.8-3.4,17.1c19.9,25.7,41.5,49.8,65.4,71.9
			c5.3,4.9,13.6,5.2,18.8,0c4.9-4.9,5.3-13.9,0-18.8c-22.1-20.5-42.8-42.6-61.3-66.5c-7,5.4-13.9,10.7-20.9,16.1
			c22.6,21.6,38.8,48.3,54.9,74.9c2.6-6.5,5.3-13,7.9-19.5c-2.6,1.1-6.6,2.4-8.6,4.8c10.1,5.3,13.5,5.7,10.2,1.2
			c-0.3-0.5-0.7-1.1-1-1.6c-1-1.6-2-3.2-3-4.7c-4.1-6.6-8.2-13.2-12.1-19.9c-7.7-13.1-14.9-26.5-21.1-40.4
			c-2.9-6.6-12.5-8.1-18.2-4.8c-6.8,4-7.6,11.5-4.8,18.2c11.2,26.4,31.1,47.6,43.6,73.3c3.1,6.5,12.3,8.2,18.2,4.8
			C269.1,375.1,270.4,367.2,267.3,360.7L267.3,360.7z"/>
	</g>
</g>
<g class="st9">
	<g class="st10">
		<path class="st12" d="M281.9,315.3c13.7-7.5,19.9-22.3,24.6-36.3c4.9-14.9,7.9-30.3,10.8-45.7c-8.1,1.1-16.2,2.1-24.3,3.2
			c2.5,5.6,3.2,12,3.6,18c0.5,7,1.4,14.6,0.4,21.7c-1.6,10.7-9.8,14.8-20,17.6c-16.5,4.6-9.5,30.2,7.1,25.6
			c18.3-5.1,34.8-16.7,38.6-36.3c1.9-9.7,1.3-19.7,0.5-29.5c-0.8-10.8-2.7-20.7-7.2-30.6c-4.6-10.2-22.2-7.7-24.3,3.2
			c-2.6,13.5-5.1,27.1-9.1,40.3c-1.7,5.7-3.7,11.8-5.9,16.3c-2.4,4.8-4.1,7.4-8.1,9.5C253.5,300.6,266.9,323.6,281.9,315.3
			L281.9,315.3z"/>
	</g>
</g>
<g class="st9">
	<g class="st10">
		<path class="st12" d="M256.2,253.6c-6.5-10.3-12.1-21.1-16.5-32.4c-3.1,5.4-6.2,10.9-9.3,16.3c2.9-0.5,5.7-1.1,8.6-1.6
			c1.3-0.2,2.5-0.5,3.8-0.7c0.6-0.1,4-0.3,2.1-0.4c-3.1-1.3-6.3-2.6-9.4-3.9c0.1,0.2,0.2,0.3,0.4,0.5c-1.1-2-2.3-3.9-3.4-5.9
			c-0.3-1.6-0.3-1.2,0,1.1c0.1,1.3,0.2,2.6,0.3,4c0.2,2.6,0.4,5.3,0.7,7.9s0.4,5.3,0.7,7.9c0.1,1.3,0.2,2.6,0.3,4
			c0,2.4,0.3,1.7,0.9-1.9c1.6-1.6,3.2-3.2,4.8-4.8c-0.3,0.2-0.6,0.4-0.9,0.7c6.1,6.1,12.1,12.1,18.2,18.2c3.1-7.1,5.9-14.3,8-21.8
			c2-7.4,4.3-15.7,1.9-23.2c-6.2-19.8-29.9-13.5-44-7.9c-5,2-10.5,6.7-9.8,12.8c1.2,10,6.1,16.7,15.6,20.3
			c6.7,2.5,14.6-2.8,16.3-9.3c2-7.5-2.5-13.8-9.3-16.3c2.9,1.1,3.5,2.3,3.9,5.3c-3.3,4.3-6.5,8.5-9.8,12.8c4.7-1.9,9.5-3.2,14.5-4.5
			c2.1-0.4,2.5-0.5,1.1-0.3c1.7,0,1.9,0,0.7-0.2c-3-1.3-4.6-3.2-4.8-5.8c-0.1,1.5-0.1,1.8,0,1c-1.9,6.5-4,16.3-7.3,23.8
			c-2.4,5.5-2.4,11.6,2.1,16.1c3.9,3.9,11.3,5.5,16.1,2.1c7.1-5,8.9-11.5,8.2-19.9c-0.6-6.9-1.2-13.8-1.7-20.7
			c-0.3-3.8-0.3-7.9-2.3-11.3c-2.5-4.2-7-7-11.8-7.1c-7-0.1-14.7,2.3-21.5,3.6c-6.6,1.2-11.7,10.1-9.3,16.3
			c5.2,13.5,11.4,26.5,19.1,38.8c3.8,6.1,11.8,8.5,18.2,4.8C257.5,268.3,260.1,259.7,256.2,253.6L256.2,253.6z"/>
	</g>
</g>
</svg>
